<svg aria-hidden="true" style="position: absolute; width: 0; height: 0; overflow: hidden;" version="1.1" xmlns="http://www.w3.org/2000/svg" xmlns:xlink="http://www.w3.org/1999/xlink">
<defs>
<symbol id="burger" viewBox="0 0 48 32">
<path d="M0 5.333v-5.333h48v5.333h-48zM0 18.667h48v-5.333h-48v5.333zM0 32h48v-5.333h-48v5.333z"></path>
</symbol>
<symbol id="icon-close" viewBox="0 0 32 32">
<path d="M26.667 7.303l-1.97-1.97-7.808 7.808-7.808-7.808-1.97 1.97 7.808 7.808-7.808 7.808 1.97 1.97 7.808-7.808 7.808 7.808 1.97-1.97-7.808-7.808 7.808-7.808z"></path>
</symbol>
<symbol id="arrow" viewBox="0 0 12 12">
<path fill-rule="evenodd" clip-rule="evenodd" d="M2.13017 4.81427C1.95661 4.6407 1.95661 4.3593 2.13017 4.18573C2.28796 4.02794 2.53487 4.0136 2.70887 4.1427L2.75871 4.18573L6 7.42681L9.24129 4.18573C9.39907 4.02794 9.64599 4.0136 9.81998 4.1427L9.86983 4.18573C10.0276 4.34352 10.042 4.59043 9.91286 4.76442L9.86983 4.81427L6.31427 8.36983C6.15648 8.52761 5.90957 8.54196 5.73558 8.41286L5.68573 8.36983L2.13017 4.81427Z"/>
</symbol>
<symbol id="magnifying-loop" viewBox="0 0 24 24">
<path  fill-rule="evenodd" clip-rule="evenodd" d="M10 2.25C5.71979 2.25 2.25 5.71979 2.25 10C2.25 14.2802 5.71979 17.75 10 17.75C11.87 17.75 13.5853 17.0877 14.9242 15.9848L20.4697 21.5303L20.5538 21.6029C20.8474 21.8208 21.2641 21.7966 21.5303 21.5303C21.8232 21.2374 21.8232 20.7626 21.5303 20.4697L15.9848 14.9242C17.0877 13.5853 17.75 11.87 17.75 10C17.75 5.71979 14.2802 2.25 10 2.25ZM10 3.75C13.4518 3.75 16.25 6.54822 16.25 10C16.25 13.4518 13.4518 16.25 10 16.25C6.54822 16.25 3.75 13.4518 3.75 10C3.75 6.54822 6.54822 3.75 10 3.75Z"/>
</symbol>
<symbol id="arrow-left" viewBox="0 0 28 24">
<path d="M0.795115 10.9393C0.209328 11.5251 0.209328 12.4749 0.795114 13.0607L10.3411 22.6066C10.9268 23.1924 11.8766 23.1924 12.4624 22.6066C13.0482 22.0208 13.0482 21.0711 12.4624 20.4853L3.97709 12L12.4624 3.51472C13.0482 2.92893 13.0482 1.97918 12.4624 1.3934C11.8766 0.80761 10.9268 0.80761 10.3411 1.3934L0.795115 10.9393ZM26.1442 10.5L1.85577 10.5L1.85577 13.5L26.1442 13.5L26.1442 10.5Z"/>
</symbol>
<symbol id="arrow-right" viewBox="0 0 28 24">
<path d="M26.2049 13.0607C26.7907 12.4749 26.7907 11.5251 26.2049 10.9393L16.6589 1.3934C16.0732 0.807611 15.1234 0.807611 14.5376 1.3934C13.9518 1.97919 13.9518 2.92893 14.5376 3.51472L23.0229 12L14.5376 20.4853C13.9518 21.0711 13.9518 22.0208 14.5376 22.6066C15.1234 23.1924 16.0732 23.1924 16.6589 22.6066L26.2049 13.0607ZM0.855774 13.5H25.1442V10.5H0.855774V13.5Z"/>
</symbol>
<symbol id="arrow-bottom" viewBox="0 0 16 17">
<path d="M16 8.49529L15.1043 7.59959L8.63642 14.0769L8.63642 0.5L7.36358 0.5L7.36358 14.0675L0.895699 7.59959L9.54553e-08 8.49529L8.00471 16.5L16 8.49529Z"/>
</symbol>
</svg>
</defs>
</svg>